<svg xmlns="http://www.w3.org/2000/svg" viewBox="0 0 100 100">
  <defs>
    <linearGradient id="g" x1="0%" y1="0%" x2="100%" y2="100%">
      <stop offset="0%" stop-color="#6366f1"/>
      <stop offset="100%" stop-color="#a855f7"/>
    </linearGradient>
  </defs>
  <rect width="100" height="100" rx="20" fill="url(#g)"/>
  <path d="M30 55l10-10a4 4 0 015.66 0L60 60M55 50l5-5a4 4 0 015.66 0L75 55M50 35h.01M25 70h50a5 5 0 005-5V30a5 5 0 00-5-5H25a5 5 0 00-5 5v35a5 5 0 005 5z" fill="none" stroke="#fff" stroke-width="5" stroke-linecap="round" stroke-linejoin="round"/>
</svg>
